
<svg xmlns="http://www.w3.org/2000/svg" xmlns:xlink="http://www.w3.org/1999/xlink" x="0px" y="0px"
	 viewBox="0 0 138 75.9" style="enable-background:new 0 0 138 75.9;" xml:space="preserve">
<style type="text/css">
	.light-log0{fill:#FFFFFF;}
	.light-log1{fill:#D25239;}
</style>
<g transform="translate(-173.98 -55.3)">
	<path  class="light-log0" d="M191.3,120.4c-3.3,0-6.6-0.4-9.8-1.3c-2.7-0.7-5.2-1.9-7.5-3.5l3.3-7.3c2,1.4,4.2,2.4,6.5,3.1
		c2.4,0.8,5,1.2,7.6,1.2c1.6,0,3.2-0.1,4.7-0.6c1-0.3,1.9-0.8,2.6-1.6c0.6-0.6,0.9-1.5,0.8-2.3c0-1.1-0.5-2-1.3-2.6
		c-1.1-0.7-2.3-1.3-3.5-1.6c-1.5-0.4-3.1-0.8-4.8-1.2c-1.8-0.4-3.5-0.8-5.3-1.4c-1.7-0.5-3.3-1.2-4.8-2.1c-1.4-0.9-2.7-2-3.5-3.5
		c-1-1.7-1.4-3.6-1.4-5.5c0-2.3,0.7-4.6,2-6.5c1.5-2.1,3.6-3.7,5.9-4.7c3.2-1.3,6.6-1.9,10-1.8c2.7,0,5.3,0.3,7.9,0.9
		c2.4,0.5,4.7,1.5,6.9,2.8l-3,7.3c-1.9-1.1-3.9-1.9-5.9-2.5c-1.9-0.5-3.9-0.8-5.8-0.8c-1.6,0-3.2,0.2-4.7,0.7
		c-1,0.3-1.9,0.9-2.6,1.7c-0.5,0.7-0.8,1.5-0.8,2.4c0,1,0.5,2,1.3,2.6c1.1,0.7,2.3,1.3,3.5,1.6c1.5,0.4,3.1,0.8,4.8,1.2
		s3.5,0.8,5.3,1.4c1.7,0.5,3.3,1.2,4.8,2.1c1.4,0.9,2.7,2,3.5,3.5c1,1.6,1.4,3.5,1.4,5.4c0,2.3-0.7,4.5-2,6.4
		c-1.5,2.1-3.6,3.7-6,4.7C198.1,119.9,194.7,120.5,191.3,120.4z M215.5,119.7l-0.1-32l9.4,0.1l0.1,32H215.5z M220.1,83.2
		c-1.6,0.1-3.1-0.5-4.2-1.5c-1.1-0.9-1.7-2.3-1.6-3.7c0-1.4,0.6-2.8,1.6-3.7c1.2-1,2.7-1.6,4.2-1.5c1.5-0.1,3,0.4,4.2,1.4
		c1.1,0.9,1.7,2.2,1.6,3.6c0,1.5-0.5,2.8-1.6,3.8C223.2,82.7,221.6,83.2,220.1,83.2L220.1,83.2z M233.6,119.7v-32h9v9l-1.3-2.6
		c0.9-2.2,2.6-4,4.7-5.1c2.4-1.2,5.1-1.8,7.8-1.8v8.6c-0.4,0-0.8-0.1-1.1-0.1s-0.7,0-1,0c-2.3-0.1-4.5,0.7-6.3,2.2
		c-1.6,1.4-2.4,3.7-2.4,6.8v15.1H233.6z M278.8,120.1c-2.5,0.1-5-0.6-7.2-1.8c-2.1-1.3-3.8-3.2-4.8-5.4c-1.2-2.9-1.8-6.1-1.7-9.3
		c-0.1-3.2,0.4-6.3,1.6-9.3c1-2.3,2.6-4.2,4.7-5.4c2.3-1.2,4.8-1.9,7.4-1.8c2.9,0,5.7,0.7,8.3,2.1c2.4,1.3,4.4,3.3,5.8,5.7
		c1.5,2.7,2.2,5.7,2.2,8.7c0.1,3.1-0.7,6.1-2.2,8.7c-1.4,2.4-3.4,4.4-5.8,5.7C284.5,119.5,281.7,120.2,278.8,120.1L278.8,120.1z
		 M259.5,131.2V87.6h9v6.5l-0.2,9.5l0.6,9.5v18H259.5z M277.2,112.5c1.5,0,2.9-0.3,4.2-1.1c1.3-0.7,2.3-1.8,3-3.1
		c0.8-1.5,1.2-3.1,1.1-4.7c0.1-1.7-0.3-3.3-1.1-4.8c-0.7-1.3-1.7-2.3-3-3c-1.3-0.7-2.7-1.1-4.2-1.1c-1.5,0-2.9,0.3-4.2,1.1
		c-1.3,0.7-2.3,1.8-3,3c-0.8,1.5-1.1,3.1-1.1,4.8c0,1.6,0.3,3.3,1.1,4.7c0.7,1.3,1.7,2.3,3,3.1C274.2,112.2,275.7,112.5,277.2,112.5
		z M301.5,119.7l-0.1-32l9.4,0.1l0.1,32L301.5,119.7z M306.1,83.2c-1.6,0.1-3.1-0.5-4.2-1.5c-1.1-0.9-1.7-2.3-1.6-3.7
		c0-1.4,0.6-2.8,1.6-3.7c1.2-1,2.7-1.6,4.2-1.5c1.5-0.1,3,0.4,4.2,1.4c1.1,0.9,1.7,2.2,1.6,3.6c0,1.5-0.5,2.8-1.6,3.8
		C309.2,82.7,307.7,83.2,306.1,83.2z"/>
<g  transform="translate(296.079 55.3) rotate(90)">
		<path class="light-log1" d="M11.1,23.5c2.8-1.1,5.7-1.6,8.7-1.6c2.9,0,5.8,0.5,8.5,1.5v0.3c-2.1-0.7-4.4-1-6.6-1
			c-3.4,0-6.7,0.8-9.7,2.2C11.6,24.5,11.4,24,11.1,23.5 M28.3,40.7C18,44.5,6.4,40.9,0,32c2.4-3.4,5.7-6.1,9.4-7.8
			c0.3,0.5,0.7,1,1.1,1.5c-2.8,1.6-5.1,3.8-7,6.3c5.6,7.8,15.6,11.2,24.8,8.3V40.7z"/>
		<path class="light-log1" d="M18.8,11.7c3,0.5,5.8,1.5,8.4,3c0.4,0.2,0.7,0.4,1.1,0.7v0.9c-2.9-1.7-6.2-2.7-9.5-2.9
			C18.8,12.8,18.8,12.2,18.8,11.7 M28.3,35.5C16.1,35,6.2,25.7,5,13.5c3.8-1.7,7.9-2.4,12-2.1c0,0.6,0.1,1.2,0.2,1.8
			c-3.2,0-6.3,0.7-9.2,2C9,26,17.6,34.4,28.3,35.4V35.5z"/>
		<path class="light-log1" d="M28.3,31c-10.7-6.3-14.9-19.7-9.8-31c3.5,0.3,6.8,1.4,9.8,3.2v2.2C25.8,4.1,23,3.3,20.2,3
			C15.7,13,19.1,24.9,28.3,31L28.3,31z"/>
		<path  class="light-log1" d="M25.8,34.7c0.8-0.6,1.6-1.2,2.5-1.7v0.1c-0.8,0.5-1.5,1.1-2.2,1.6
			C26,34.8,25.9,34.7,25.8,34.7 M16.6,50.2c1-6,4.2-11.5,8.9-15.3c0.1,0,0.2,0,0.3,0.1c-4.4,3.9-7.1,9.3-7.6,15.2
			C17.7,50.2,17.2,50.2,16.6,50.2 M28.3,60.9c-3,1.7-6.3,2.8-9.8,3.2c-1.7-3.8-2.4-7.9-2.1-12.1c0.6,0,1.2-0.1,1.8-0.2
			c0,3.2,0.7,6.3,2,9.2c2.8-0.3,5.5-1.1,8.1-2.4V60.9z"/>
		<path class="light-log1" d="M25.9,28.8c0.8-0.1,1.6-0.2,2.4-0.2v0.1c-0.7,0.1-1.4,0.2-2.1,0.3
			C26.1,28.9,26,28.8,25.9,28.8 M10.3,37.6c1.9-2.3,4.2-4.3,6.8-5.8c2.6-1.5,5.6-2.5,8.6-3c0.1,0.1,0.2,0.1,0.2,0.2
			c-2.4,0.5-4.7,1.4-6.8,2.6c-2.9,1.7-5.5,4-7.4,6.8C11.2,38.2,10.7,37.9,10.3,37.6 M28.3,48.7c-0.4,0.2-0.7,0.5-1.1,0.7
			c-6.8,3.9-15.1,4.3-22.2,1.1c0.4-4.1,1.9-8,4.2-11.4c0.5,0.3,1.1,0.5,1.7,0.8c-1.6,2.7-2.5,5.8-2.9,8.9c6.5,3,14.1,2.6,20.3-1
			L28.3,48.7z"/>
	</g>
</g>
</svg>
